<svg id="chessBoard"
    xmlns="http://www.w3.org/2000/svg" viewBox="0 0 567.93 567.93">
    <defs>
        <style>
        .cls-1{fill:#a73a2f;stroke:#a73a2f;stroke-miterlimit:10;}
        .cls-2{fill:#83261d;}.cls-3{fill:#f2c48d;}
        .cls-4{font-size:27px;letter-spacing:0em;}
        .cls-4,.cls-5{fill:#efefef;font-family:CenturyGothic-Bold, Century Gothic;font-weight:700;}
        .cls-5{font-size:30px;letter-spacing:0em;}
        .wp{font-size:50px;letter-spacing:0em;fill:#c38748}
        .bp{font-size:50px;letter-spacing:0em;fill:#150503}
        </style>
    </defs>
    <rect id="border" class="cls-1" x="0.5" y="0.5" width="566.93" height="566.93"/>
    <g id="A8">
        <!--A8-->
        <rect class="cls-2" x="57.93" y="57.93" width="55.22" height="55.22"/>
        <path class="cls-2" d="M120.17,64.91v53.73H66.43V64.91h53.74m1.48-1.48H65v56.69h56.69V63.43Z" transform="translate(-7.76 -6.23)"/>
    </g>
    <g id="B8">
        <!--B8-->
        <rect class="cls-3" x="114.39" y="57.69" width="55.69" height="55.69"/>
        <path class="cls-3" d="M177.34,64.43v54.69H122.65V64.43h54.69m1-1H121.65v56.69h56.69V63.43Z" transform="translate(-7.76 -6.23)"/>
    </g>
    <g id="C8">
        <!--C8-->
        <rect class="cls-2" x="171.32" y="57.93" width="55.22" height="55.22"/>
        <path class="cls-2" d="M233.56,64.91v53.73H179.82V64.91h53.74M235,63.43H178.34v56.69H235V63.43Z" transform="translate(-7.76 -6.23)"/>
    </g>
    <g id="D8">
        <!--D8-->
        <rect class="cls-3" x="227.77" y="57.69" width="55.69" height="55.69"/>
        <path class="cls-3" d="M290.73,64.43v54.69H236V64.43h54.7m1-1H235v56.69h56.7V63.43Z" transform="translate(-7.76 -6.23)"/>
    </g>
    <g id="E8">
        <!--E8-->
        <rect class="cls-2" x="284.7" y="57.93" width="55.21" height="55.22"/>
        <path class="cls-2" d="M346.94,64.91v53.73H293.21V64.91h53.73m1.48-1.48H291.73v56.69h56.69V63.43Z" transform="translate(-7.76 -6.23)"/>
    </g>
    <g id="F8">
        <!--F8-->
        <rect class="cls-3" x="341.16" y="57.69" width="55.69" height="55.69"/>
        <path class="cls-3" d="M404.11,64.43v54.69H349.42V64.43h54.69m1-1H348.42v56.69h56.69V63.43Z" transform="translate(-7.76 -6.23)"/>
    </g>
    <g id="G8">
        <!--G8-->
        <rect class="cls-2" x="398.09" y="57.93" width="55.21" height="55.22"/>
        <path class="cls-2" d="M460.33,64.91v53.73H406.59V64.91h53.74m1.48-1.48h-56.7v56.69h56.7V63.43Z" transform="translate(-7.76 -6.23)"/>
    </g>
    <g id="H8">
        <!--H8-->
        <rect class="cls-3" x="454.54" y="57.69" width="55.69" height="55.69"/>
        <path class="cls-3" d="M517.5,64.43v54.69H462.81V64.43H517.5m1-1H461.81v56.69H518.5V63.43Z" transform="translate(-7.76 -6.23)"/>
    </g>
    <g id="H7">
        <!--H7-->
        <rect class="cls-2" x="454.78" y="114.62" width="55.21" height="55.22"/>
        <path class="cls-2" d="M517,121.6v53.74H463.28V121.6H517m1.48-1.48H461.81v56.69H518.5V120.12Z" transform="translate(-7.76 -6.23)"/>
    </g>
    <g id="G7">
        <!--G7-->
        <rect class="cls-3" x="397.85" y="114.39" width="55.69" height="55.69"/>
        <path class="cls-3" d="M460.81,121.12v54.69h-54.7V121.12h54.7m1-1h-56.7v56.69h56.7V120.12Z" transform="translate(-7.76 -6.23)"/>
    </g>
    <g id="F7">
        <!--F7-->
        <rect class="cls-2" x="341.4" y="114.62" width="55.21" height="55.22"/>
        <path class="cls-2" d="M403.64,121.6v53.74H349.9V121.6h53.74m1.47-1.48H348.42v56.69h56.69V120.12Z" transform="translate(-7.76 -6.23)"/>
    </g>
    <g id="E7">
        <!--E7-->
        <rect class="cls-3" x="284.46" y="114.39" width="55.69" height="55.69"/>
        <path class="cls-3" d="M347.42,121.12v54.69H292.73V121.12h54.69m1-1H291.73v56.69h56.69V120.12Z" transform="translate(-7.76 -6.23)"/>
    </g>
    <g id="D7">
        <!--D7-->
        <rect class="cls-2" x="228.01" y="114.62" width="55.22" height="55.22"/>
        <path class="cls-2" d="M290.25,121.6v53.74H236.51V121.6h53.74m1.48-1.48H235v56.69h56.7V120.12Z" transform="translate(-7.76 -6.23)"/>
    </g>
    <g id="C7">
        <!--C7-->
        <rect class="cls-3" x="171.08" y="114.39" width="55.69" height="55.69"/>
        <path class="cls-3" d="M234,121.12v54.69H179.34V121.12H234m1-1H178.34v56.69H235V120.12Z" transform="translate(-7.76 -6.23)"/>
    </g>
    <g id="B7">
        <!--B7-->
        <rect class="cls-2" x="114.62" y="114.62" width="55.22" height="55.22"/>
        <path class="cls-2" d="M176.86,121.6v53.74H123.13V121.6h53.73m1.48-1.48H121.65v56.69h56.69V120.12Z" transform="translate(-7.76 -6.23)"/>
    </g>
    <g id="A7">
        <!--A7-->
        <rect class="cls-3" x="57.69" y="114.39" width="55.69" height="55.69"/>
        <path class="cls-3" d="M120.65,121.12v54.69H66V121.12h54.69m1-1H65v56.69h56.69V120.12Z" transform="translate(-7.76 -6.23)"/>
    </g>
    <g id="A6">
        <!--A6-->
        <rect class="cls-2" x="57.93" y="171.32" width="55.22" height="55.22"/>
        <path class="cls-2" d="M120.17,178.29V232H66.43V178.29h53.74m1.48-1.48H65v56.7h56.69v-56.7Z" transform="translate(-7.76 -6.23)"/>
    </g>
    <g id="B6">
        <!--B6-->
        <rect class="cls-3" x="114.39" y="171.08" width="55.69" height="55.69"/>
        <path class="cls-3" d="M177.34,177.81v54.7H122.65v-54.7h54.69m1-1H121.65v56.7h56.69v-56.7Z" transform="translate(-7.76 -6.23)"/>
    </g>
    <g id="C6">
        <!--C6-->
        <rect class="cls-2" x="171.32" y="171.32" width="55.22" height="55.22"/>
        <path class="cls-2" d="M233.56,178.29V232H179.82V178.29h53.74m1.47-1.48H178.34v56.7H235v-56.7Z" transform="translate(-7.76 -6.23)"/>
    </g>
    <g id="D6">
        <!--D6-->
        <rect class="cls-3" x="227.77" y="171.08" width="55.69" height="55.69"/>
        <path class="cls-3" d="M290.73,177.81v54.7H236v-54.7h54.7m1-1H235v56.7h56.7v-56.7Z" transform="translate(-7.76 -6.23)"/>
    </g>
    <g id="E6">
        <!--E6-->
        <rect class="cls-2" x="284.7" y="171.32" width="55.21" height="55.22"/>
        <path class="cls-2" d="M346.94,178.29V232H293.21V178.29h53.73m1.48-1.48H291.73v56.7h56.69v-56.7Z" transform="translate(-7.76 -6.23)"/>
    </g>
    <g id="F6">
        <!--F6-->
        <rect class="cls-3" x="341.16" y="171.08" width="55.69" height="55.69"/>
        <path class="cls-3" d="M404.11,177.81v54.7H349.42v-54.7h54.69m1-1H348.42v56.7h56.69v-56.7Z" transform="translate(-7.76 -6.23)"/>
    </g>
    <g id="G6">
        <!--G6-->
        <rect class="cls-2" x="398.09" y="171.32" width="55.21" height="55.22"/>
        <path class="cls-2" d="M460.33,178.29V232H406.59V178.29h53.74m1.48-1.48h-56.7v56.7h56.7v-56.7Z" transform="translate(-7.76 -6.23)"/>
    </g>
    <g id="H6">
        <!--H6-->
        <rect class="cls-3" x="454.54" y="171.08" width="55.69" height="55.69"/>
        <path class="cls-3" d="M517.5,177.81v54.7H462.81v-54.7H517.5m1-1H461.81v56.7H518.5v-56.7Z" transform="translate(-7.76 -6.23)"/>
    </g>
    <g id="H5">
        <!--H5-->
        <rect class="cls-2" x="454.78" y="228.01" width="55.21" height="55.22"/>
        <path class="cls-2" d="M517,235v53.74H463.28V235H517m1.48-1.47H461.81V290.2H518.5V233.51Z" transform="translate(-7.76 -6.23)"/>
    </g>
    <g id="G5">
        <!--G5-->
        <rect class="cls-3" x="397.85" y="227.77" width="55.69" height="55.69"/>
        <path class="cls-3" d="M460.81,234.51V289.2h-54.7V234.51h54.7m1-1h-56.7V290.2h56.7V233.51Z" transform="translate(-7.76 -6.23)"/>
    </g>
    <g id="F5">
        <!--F5-->
        <rect class="cls-2" x="341.4" y="228.01" width="55.21" height="55.22"/>
        <path class="cls-2" d="M403.64,235v53.74H349.9V235h53.74m1.47-1.47H348.42V290.2h56.69V233.51Z" transform="translate(-7.76 -6.23)"/>
    </g>
    <g id="E5">
        <!--E5-->
        <rect class="cls-3" x="284.46" y="227.77" width="55.69" height="55.69"/>
        <path class="cls-3" d="M347.42,234.51V289.2H292.73V234.51h54.69m1-1H291.73V290.2h56.69V233.51Z" transform="translate(-7.76 -6.23)"/>
    </g>
    <g id="D5">
        <!--D5-->
        <rect class="cls-2" x="228.01" y="228.01" width="55.22" height="55.22"/>
        <path class="cls-2" d="M290.25,235v53.74H236.51V235h53.74m1.48-1.47H235V290.2h56.7V233.51Z" transform="translate(-7.76 -6.23)"/>
    </g>
    <g id="C5">
        <!--C5-->
        <rect class="cls-3" x="171.08" y="227.77" width="55.69" height="55.69"/>
        <path class="cls-3" d="M234,234.51V289.2H179.34V234.51H234m1-1H178.34V290.2H235V233.51Z" transform="translate(-7.76 -6.23)"/>
    </g>
    <g id="B5">
        <!--B5-->
        <rect class="cls-2" x="114.62" y="228.01" width="55.22" height="55.22"/>
        <path class="cls-2" d="M176.86,235v53.74H123.13V235h53.73m1.48-1.47H121.65V290.2h56.69V233.51Z" transform="translate(-7.76 -6.23)"/>
    </g>
    <g id="A5">
        <!--A5-->
        <rect class="cls-3" x="57.69" y="227.77" width="55.69" height="55.69"/>
        <path class="cls-3" d="M120.65,234.51V289.2H66V234.51h54.69m1-1H65V290.2h56.69V233.51Z" transform="translate(-7.76 -6.23)"/>
    </g>
    <g id="A4">
        <!--A4-->
        <rect class="cls-2" x="57.93" y="284.7" width="55.22" height="55.22"/>
        <path class="cls-2" d="M120.17,291.68v53.73H66.43V291.68h53.74m1.48-1.48H65v56.69h56.69V290.2Z" transform="translate(-7.76 -6.23)"/>
    </g>
    <g id="B4">
        <!--B4-->
        <rect class="cls-3" x="114.39" y="284.46" width="55.69" height="55.69"/>
        <path class="cls-3" d="M177.34,291.2v54.69H122.65V291.2h54.69m1-1H121.65v56.69h56.69V290.2Z" transform="translate(-7.76 -6.23)"/>
    </g>
    <g id="C4">
        <!--C4-->
        <rect class="cls-2" x="171.32" y="284.7" width="55.22" height="55.22"/>
        <path class="cls-2" d="M233.56,291.68v53.73H179.82V291.68h53.74M235,290.2H178.34v56.69H235V290.2Z" transform="translate(-7.76 -6.23)"/>
    </g>
    <g id="D4">
        <!--D4-->
        <rect class="cls-3" x="227.77" y="284.46" width="55.69" height="55.69"/>
        <path class="cls-3" d="M290.73,291.2v54.69H236V291.2h54.7m1-1H235v56.69h56.7V290.2Z" transform="translate(-7.76 -6.23)"/>
    </g>
    <g id="E4">
        <!--F4-->
        <rect class="cls-2" x="284.7" y="284.7" width="55.21" height="55.22"/>
        <path class="cls-2" d="M346.94,291.68v53.73H293.21V291.68h53.73m1.48-1.48H291.73v56.69h56.69V290.2Z" transform="translate(-7.76 -6.23)"/>
    </g>
    <g id="F4">
        <!--F4-->
        <rect class="cls-3" x="341.16" y="284.46" width="55.69" height="55.69"/>
        <path class="cls-3" d="M404.11,291.2v54.69H349.42V291.2h54.69m1-1H348.42v56.69h56.69V290.2Z" transform="translate(-7.76 -6.23)"/>
    </g>
    <g id="G4">
        <!--G4-->
        <rect class="cls-2" x="398.09" y="284.7" width="55.21" height="55.22"/>
        <path class="cls-2" d="M460.33,291.68v53.73H406.59V291.68h53.74m1.48-1.48h-56.7v56.69h56.7V290.2Z" transform="translate(-7.76 -6.23)"/>
    </g>
    <g id="H4">
        <!--H4-->
        <rect class="cls-3" x="454.54" y="284.46" width="55.69" height="55.69"/>
        <path class="cls-3" d="M517.5,291.2v54.69H462.81V291.2H517.5m1-1H461.81v56.69H518.5V290.2Z" transform="translate(-7.76 -6.23)"/>
    </g>
    <g id="H3">
        <!--H3-->
        <rect class="cls-2" x="454.78" y="341.4" width="55.21" height="55.22"/>
        <path class="cls-2" d="M517,348.37v53.74H463.28V348.37H517m1.48-1.48H461.81v56.69H518.5V346.89Z" transform="translate(-7.76 -6.23)"/>
    </g>
    <g id="G3">
        <!--G3-->
        <rect class="cls-3" x="397.85" y="341.16" width="55.69" height="55.69"/>
        <path class="cls-3" d="M460.81,347.89v54.69h-54.7V347.89h54.7m1-1h-56.7v56.69h56.7V346.89Z" transform="translate(-7.76 -6.23)"/>
    </g>
    <g id="F3">
        <!--F3-->
        <rect class="cls-2" x="341.4" y="341.4" width="55.21" height="55.22"/>
        <path class="cls-2" d="M403.64,348.37v53.74H349.9V348.37h53.74m1.47-1.48H348.42v56.69h56.69V346.89Z" transform="translate(-7.76 -6.23)"/>
    </g>
    <g id="E3">
        <!--E3-->
        <rect class="cls-3" x="284.46" y="341.16" width="55.69" height="55.69"/>
        <path class="cls-3" d="M347.42,347.89v54.69H292.73V347.89h54.69m1-1H291.73v56.69h56.69V346.89Z" transform="translate(-7.76 -6.23)"/>
    </g>
    <g id="D3">
        <!--D3-->
        <rect class="cls-2" x="228.01" y="341.4" width="55.22" height="55.22"/>
        <path class="cls-2" d="M290.25,348.37v53.74H236.51V348.37h53.74m1.48-1.48H235v56.69h56.7V346.89Z" transform="translate(-7.76 -6.23)"/>
    </g>
    <g id="C3">
        <!--C3-->
        <rect class="cls-3" x="171.08" y="341.16" width="55.69" height="55.69"/>
        <path class="cls-3" d="M234,347.89v54.69H179.34V347.89H234m1-1H178.34v56.69H235V346.89Z" transform="translate(-7.76 -6.23)"/>
    </g>
    <g id="B3">
        <!--B3-->
        <rect class="cls-2" x="114.62" y="341.4" width="55.22" height="55.22"/>
        <path class="cls-2" d="M176.86,348.37v53.74H123.13V348.37h53.73m1.48-1.48H121.65v56.69h56.69V346.89Z" transform="translate(-7.76 -6.23)"/>
    </g>
    <g id="A3">
        <!--A3-->
        <rect class="cls-3" x="57.69" y="341.16" width="55.69" height="55.69"/>
        <path class="cls-3" d="M120.65,347.89v54.69H66V347.89h54.69m1-1H65v56.69h56.69V346.89Z" transform="translate(-7.76 -6.23)"/>
    </g>
    <g id="A2">
        <!--A2-->
        <rect class="cls-2" x="57.93" y="398.09" width="55.22" height="55.21"/>
        <path class="cls-2" d="M120.17,405.06V458.8H66.43V405.06h53.74m1.48-1.48H65v56.7h56.69v-56.7Z" transform="translate(-7.76 -6.23)"/>
    </g>
    <g id="B2">
        <!--B2-->
        <rect class="cls-3" x="114.39" y="397.85" width="55.69" height="55.69"/>
        <path class="cls-3" d="M177.34,404.58v54.7H122.65v-54.7h54.69m1-1H121.65v56.7h56.69v-56.7Z" transform="translate(-7.76 -6.23)"/>
    </g>
    <g id="C2">
        <!--C2-->
        <rect class="cls-2" x="171.32" y="398.09" width="55.22" height="55.21"/>
        <path class="cls-2" d="M233.56,405.06V458.8H179.82V405.06h53.74m1.47-1.48H178.34v56.7H235v-56.7Z" transform="translate(-7.76 -6.23)"/>
    </g>
    <g id="D2">
        <!--D2-->
        <rect class="cls-3" x="227.77" y="397.85" width="55.69" height="55.69"/>
        <path class="cls-3" d="M290.73,404.58v54.7H236v-54.7h54.7m1-1H235v56.7h56.7v-56.7Z" transform="translate(-7.76 -6.23)"/>
    </g>
    <g id="E2">
        <!--E2-->
        <rect class="cls-2" x="284.7" y="398.09" width="55.21" height="55.21"/>
        <path class="cls-2" d="M346.94,405.06V458.8H293.21V405.06h53.73m1.48-1.48H291.73v56.7h56.69v-56.7Z" transform="translate(-7.76 -6.23)"/>
    </g>
    <g id="F2">
        <!--F2-->
        <rect class="cls-3" x="341.16" y="397.85" width="55.69" height="55.69"/>
        <path class="cls-3" d="M404.11,404.58v54.7H349.42v-54.7h54.69m1-1H348.42v56.7h56.69v-56.7Z" transform="translate(-7.76 -6.23)"/>
    </g>
    <g id="G2">
        <!--G2-->
        <rect class="cls-2" x="398.09" y="398.09" width="55.21" height="55.21"/>
        <path class="cls-2" d="M460.33,405.06V458.8H406.59V405.06h53.74m1.48-1.48h-56.7v56.7h56.7v-56.7Z" transform="translate(-7.76 -6.23)"/>
    </g>
    <g id="H2">
        <!--H2-->
        <rect class="cls-3" x="454.54" y="397.85" width="55.69" height="55.69"/>
        <path class="cls-3" d="M517.5,404.58v54.7H462.81v-54.7H517.5m1-1H461.81v56.7H518.5v-56.7Z" transform="translate(-7.76 -6.23)"/>
    </g>
    <g id="H1">
        <!--H1-->
        <rect class="cls-2" x="454.78" y="454.78" width="55.21" height="55.21"/>
        <path class="cls-2" d="M517,461.76v53.73H463.28V461.76H517m1.48-1.48H461.81V517H518.5V460.28Z" transform="translate(-7.76 -6.23)"/>
    </g>
    <g id="G1">
        <!--G1-->
        <rect class="cls-3" x="397.85" y="454.54" width="55.69" height="55.69"/>
        <path class="cls-3" d="M460.81,461.28V516h-54.7V461.28h54.7m1-1h-56.7V517h56.7V460.28Z" transform="translate(-7.76 -6.23)"/>
    </g>
    <g id="F1">
        <!--F1-->
        <rect class="cls-2" x="341.4" y="454.78" width="55.21" height="55.21"/>
        <path class="cls-2" d="M403.64,461.76v53.73H349.9V461.76h53.74m1.47-1.48H348.42V517h56.69V460.28Z" transform="translate(-7.76 -6.23)"/>
    </g>
    <g id="E1">
        <!--E1-->
        <rect class="cls-3" x="284.46" y="454.54" width="55.69" height="55.69"/>
        <path class="cls-3" d="M347.42,461.28V516H292.73V461.28h54.69m1-1H291.73V517h56.69V460.28Z" transform="translate(-7.76 -6.23)"/>
    </g>
    <g id="D1">
        <!--D1-->
        <rect class="cls-2" x="228.01" y="454.78" width="55.22" height="55.21"/>
        <path class="cls-2" d="M290.25,461.76v53.73H236.51V461.76h53.74m1.48-1.48H235V517h56.7V460.28Z" transform="translate(-7.76 -6.23)"/>
    </g>
    <g id="C1">
        <!--C1-->
        <rect class="cls-3" x="171.08" y="454.54" width="55.69" height="55.69"/>
        <path class="cls-3" d="M234,461.28V516H179.34V461.28H234m1-1H178.34V517H235V460.28Z" transform="translate(-7.76 -6.23)"/>
    </g>
    <g id="B1">
        <!--B1-->
        <rect class="cls-2" x="114.62" y="454.78" width="55.22" height="55.21"/>
        <path class="cls-2" d="M176.86,461.76v53.73H123.13V461.76h53.73m1.48-1.48H121.65V517h56.69V460.28Z" transform="translate(-7.76 -6.23)"/>
        <text class="bp" transform="translate(117.62 501.78)">&#x265C;</text>
    </g>
    <g id="A1">
        <!--A1-->
        <rect class="cls-3" x="57.69" y="454.54" width="55.69" height="55.69"/>
        <path class="cls-3" d="M120.65,461.28V516H66V461.28h54.69m1-1H65V517h56.69V460.28Z" transform="translate(-7.76 -6.23)"/>
    </g>
    <text class="cls-4" transform="translate(20.38 492.03)">1</text>
    <text class="cls-4" transform="translate(20.38 435.34)">2</text>
    <text class="cls-4" transform="translate(20.38 378.64)">3</text>
    <text class="cls-4" transform="translate(20.38 321.95)">4</text>
    <text class="cls-4" transform="translate(20.38 265.26)">5</text>
    <text class="cls-4" transform="translate(20.38 208.56)">6</text>
    <text class="cls-5" transform="translate(20.38 151.87)">7</text>
    <text class="cls-5" transform="translate(20.38 95.18)">8</text>
    <text class="cls-4" transform="translate(74.08 550.69)">A</text>
    <text class="cls-4" transform="translate(133.58 550.69)">B</text>
    <text class="cls-4" transform="translate(186.88 550.69)">C</text>
    <text class="cls-4" transform="translate(246.39 550.69)">D</text>
    <text class="cls-4" transform="translate(305.24 550.69)">E</text>
    <text class="cls-4" transform="translate(362.06 550.69)">F</text>
    <text class="cls-4" transform="translate(74.08 550.69)">A</text>
    <text class="cls-4" transform="translate(413.92 550.69)">G</text>
    <text class="cls-4" transform="translate(471.58 549.86)">H</text>
</svg>