<svg id="chessBoard"
    xmlns="http://www.w3.org/2000/svg" viewBox="0 0 567.93 567.93">
    <defs>
        <style>
        .border{fill:<!--BORDER_COLOR-->;stroke-miterlimit:10;}
        .bs{fill:<!--BLACK_SQUARE_COLOR-->;}
        .ws{fill:<!--WHITE_SQUARE_COLOR-->;}
        .sym{font-size:27px;letter-spacing:0em;fill:<!--SYMBOLS_COLOR-->;font-family:CenturyGothic-Bold, Century Gothic;font-weight:700;}
        .wp{font-size:50px;letter-spacing:0em;fill:<!--WHITE_PIECE_COLOR-->}
        .bp{font-size:50px;letter-spacing:0em;fill:<!--BLACK_PIECE_COLOR-->}
        </style>
    </defs>
    <rect id="border" class="border" x="0.5" y="0.5" width="566.93" height="566.93"/>
    <g id="A8" transform="translate(57.93 57.93)">
        <rect class="bs" width="55.69" height="55.69"/>
        <text class="<!--A8_CLASS-->" x="27.85" y="47" text-anchor="middle"><!--A8--></text>
    </g>
    <g id="B8" transform="translate(114.39 57.69)">
        <rect class="ws" width="55.69" height="55.69"/>
        <text class="<!--B8_CLASS-->" x="27.85" y="47" text-anchor="middle"><!--B8--></text>
    </g>
    <g id="C8" transform="translate(171.32 57.93)">
        <rect class="bs" width="55.69" height="55.69"/>
        <text class="<!--C8_CLASS-->" x="27.85" y="47" text-anchor="middle"><!--C8--></text>
    </g>
    <g id="D8" transform="translate(227.77 57.69)">
        <rect class="ws" width="55.69" height="55.69"/>
        <text class="<!--D8_CLASS-->" x="27.85" y="47" text-anchor="middle"><!--D8--></text>
    </g>
    <g id="E8" transform="translate(284.7 57.93)">
        <rect class="bs" width="55.69" height="55.69"/>
        <text class="<!--E8_CLASS-->" x="27.85" y="47" text-anchor="middle"><!--E8--></text>
    </g>
    <g id="F8" transform="translate(341.16 57.69)">
        <rect class="ws" width="55.69" height="55.69"/>
        <text class="<!--F8_CLASS-->" x="27.85" y="47" text-anchor="middle"><!--F8--></text>
    </g>
    <g id="G8" transform="translate(398.09 57.93)">
        <rect class="bs" width="55.69" height="55.69"/>
        <text class="<!--G8_CLASS-->" x="27.85" y="47" text-anchor="middle"><!--G8--></text>
    </g>
    <g id="H8" transform="translate(454.54 57.69)">
        <rect class="ws" width="55.69" height="55.69"/>
        <text class="<!--H8_CLASS-->" x="27.85" y="47" text-anchor="middle"><!--H8--></text>
    </g>
    <g id="H7" transform="translate(454.78 114.62)">
        <rect class="bs" width="55.69" height="55.69"/>
        <text class="<!--H7_CLASS-->" x="27.85" y="47" text-anchor="middle"><!--H7--></text>
    </g>
    <g id="G7" transform="translate(397.85 114.39)">
        <rect class="ws" width="55.69" height="55.69"/>
        <text class="<!--G7_CLASS-->" x="27.85" y="47" text-anchor="middle"><!--G7--></text>
    </g>
    <g id="F7" transform="translate(341.4 114.62)">
        <rect class="bs" width="55.69" height="55.69"/>
        <text class="<!--F7_CLASS-->" x="27.85" y="47" text-anchor="middle"><!--F7--></text>
    </g>
    <g id="E7" transform="translate(284.46 114.39)">
        <rect class="ws" width="55.69" height="55.69"/>
        <text class="<!--E7_CLASS-->" x="27.85" y="47" text-anchor="middle"><!--E7--></text>
    </g>
    <g id="D7" transform="translate(228.01 114.62)">
        <rect class="bs" width="55.69" height="55.69"/>
        <text class="<!--D7_CLASS-->" x="27.85" y="47" text-anchor="middle"><!--D7--></text>
    </g>
    <g id="C7" transform="translate(171.08 114.39)">
        <rect class="ws" width="55.69" height="55.69"/>
        <text class="<!--C7_CLASS-->" x="27.85" y="47" text-anchor="middle"><!--C7--></text>
    </g>
    <g id="B7" transform="translate(114.62 114.62)">
        <rect class="bs" width="55.69" height="55.69"/>
        <text class="<!--B7_CLASS-->" x="27.85" y="47" text-anchor="middle"><!--B7--></text>
    </g>
    <g id="A7" transform="translate(57.69 114.39)">
        <rect class="ws" width="55.69" height="55.69"/>
        <text class="<!--A7_CLASS-->" x="27.85" y="47" text-anchor="middle"><!--A7--></text>
    </g>
    <g id="A6" transform="translate(57.93 171.32)">
        <rect class="bs" width="55.69" height="55.69"/>
        <text class="<!--A6_CLASS-->" x="27.85" y="47" text-anchor="middle"><!--A6--></text>
    </g>
    <g id="B6" transform="translate(114.39 171.08)">
        <rect class="ws" width="55.69" height="55.69"/>
        <text class="<!--B6_CLASS-->" x="27.85" y="47" text-anchor="middle"><!--B6--></text>
    </g>
    <g id="C6" transform="translate(171.32 171.32)">
        <rect class="bs" width="55.69" height="55.69"/>
        <text class="<!--C6_CLASS-->" x="27.85" y="47" text-anchor="middle"><!--C6--></text>
    </g>
    <g id="D6" transform="translate(227.77 171.08)">
        <rect class="ws" width="55.69" height="55.69"/>
        <text class="<!--D6_CLASS-->" x="27.85" y="47" text-anchor="middle"><!--D6--></text>
    </g>
    <g id="E6" transform="translate(284.7 171.32)">
        <rect class="bs" width="55.69" height="55.69"/>
        <text class="<!--E6_CLASS-->" x="27.85" y="47" text-anchor="middle"><!--E6--></text>
    </g>
    <g id="F6" transform="translate(341.16 171.08)">
        <rect class="ws" width="55.69" height="55.69"/>
        <text class="<!--F6_CLASS-->" x="27.85" y="47" text-anchor="middle"><!--F6--></text>
    </g>
    <g id="G6" transform="translate(398.09 171.32)">
        <rect class="bs" width="55.69" height="55.69"/>
        <text class="<!--G6_CLASS-->" x="27.85" y="47" text-anchor="middle"><!--G6--></text>
    </g>
    <g id="H6" transform="translate(454.54 171.08)">
        <rect class="ws" width="55.69" height="55.69"/>
        <text class="<!--H6_CLASS-->" x="27.85" y="47" text-anchor="middle"><!--H6--></text>
    </g>
    <g id="H5" transform="translate(454.78 228.01)">
        <rect class="bs" width="55.69" height="55.69"/>
        <text class="<!--H5_CLASS-->" x="27.85" y="47" text-anchor="middle"><!--H5--></text>
    </g>
    <g id="G5" transform="translate(397.85 227.77)">
        <rect class="ws" width="55.69" height="55.69"/>
        <text class="<!--G5_CLASS-->" x="27.85" y="47" text-anchor="middle"><!--G5--></text>
    </g>
    <g id="F5" transform="translate(341.4 228.01)">
        <rect class="bs" width="55.69" height="55.69"/>
        <text class="<!--F5_CLASS-->" x="27.85" y="47" text-anchor="middle"><!--F5--></text>
    </g>
    <g id="E5" transform="translate(284.46 227.77)">
        <rect class="ws" width="55.69" height="55.69"/>
        <text class="<!--E5_CLASS-->" x="27.85" y="47" text-anchor="middle"><!--E5--></text>
    </g>
    <g id="D5" transform="translate(228.01 228.01)">
        <rect class="bs" width="55.69" height="55.69"/>
        <text class="<!--D5_CLASS-->" x="27.85" y="47" text-anchor="middle"><!--D5--></text>
    </g>
    <g id="C5" transform="translate(171.08 227.77)">
        <rect class="ws" width="55.69" height="55.69"/>
        <text class="<!--C5_CLASS-->" x="27.85" y="47" text-anchor="middle"><!--C5--></text>
    </g>
    <g id="B5" transform="translate(114.62 228.01)">
        <rect class="bs" width="55.69" height="55.69"/>
        <text class="<!--B5_CLASS-->" x="27.85" y="47" text-anchor="middle"><!--B5--></text>
    </g>
    <g id="A5" transform="translate(57.69 227.77)">
        <rect class="ws" width="55.69" height="55.69"/>
        <text class="<!--A5_CLASS-->" x="27.85" y="47" text-anchor="middle"><!--A5--></text>
    </g>
    <g id="A4" transform="translate(57.93 284.7)">
        <rect class="bs" width="55.69" height="55.69"/>
        <text class="<!--A4_CLASS-->" x="27.85" y="47" text-anchor="middle"><!--A4--></text>
    </g>
    <g id="B4" transform="translate(114.39 284.46)">
        <rect class="ws" width="55.69" height="55.69"/>
        <text class="<!--B4_CLASS-->" x="27.85" y="47" text-anchor="middle"><!--B4--></text>
    </g>
    <g id="C4" transform="translate(171.32 284.7)">
        <rect class="bs" width="55.69" height="55.69"/>
        <text class="<!--C4_CLASS-->" x="27.85" y="47" text-anchor="middle"><!--C4--></text>
    </g>
    <g id="D4" transform="translate(227.77 284.46)">
        <rect class="ws" width="55.69" height="55.69"/>
        <text class="<!--D4_CLASS-->" x="27.85" y="47" text-anchor="middle"><!--D4--></text>
    </g>
    <g id="E4" transform="translate(284.7 284.7)">
        <rect class="bs" width="55.69" height="55.69"/>
        <text class="<!--E4_CLASS-->" x="27.85" y="47" text-anchor="middle"><!--E4--></text>
    </g>
    <g id="F4" transform="translate(341.16 284.46)">
        <rect class="ws" width="55.69" height="55.69"/>
        <text class="<!--F4_CLASS-->" x="27.85" y="47" text-anchor="middle"><!--F4--></text>
    </g>
    <g id="G4" transform="translate(398.09 284.7)">
        <rect class="bs" width="55.69" height="55.69"/>
        <text class="<!--G4_CLASS-->" x="27.85" y="47" text-anchor="middle"><!--G4--></text>
    </g>
    <g id="H4" transform="translate(454.54 284.46)">
        <rect class="ws" width="55.69" height="55.69"/>
        <text class="<!--H4_CLASS-->" x="27.85" y="47" text-anchor="middle"><!--H4--></text>
    </g>
    <g id="H3" transform="translate(454.78 341.4)">
        <rect class="bs" width="55.69" height="55.69"/>
        <text class="<!--H3_CLASS-->" x="27.85" y="47" text-anchor="middle"><!--H3--></text>
    </g>
    <g id="G3" transform="translate(397.85 341.16)">
        <rect class="ws" width="55.69" height="55.69"/>
        <text class="<!--G3_CLASS-->" x="27.85" y="47" text-anchor="middle"><!--G3--></text>
    </g>
    <g id="F3" transform="translate(341.4 341.4)">
        <rect class="bs" width="55.69" height="55.69"/>
        <text class="<!--F3_CLASS-->" x="27.85" y="47" text-anchor="middle"><!--F3--></text>
    </g>
    <g id="E3" transform="translate(284.46 341.16)">
        <rect class="ws" width="55.69" height="55.69"/>
        <text class="<!--E3_CLASS-->" x="27.85" y="47" text-anchor="middle"><!--E3--></text>
    </g>
    <g id="D3" transform="translate(228.01 341.4)">
        <rect class="bs" width="55.69" height="55.69"/>
        <text class="<!--D3_CLASS-->" x="27.85" y="47" text-anchor="middle"><!--D3--></text>
    </g>
    <g id="C3" transform="translate(171.08 341.16)">
        <rect class="ws" width="55.69" height="55.69"/>
        <text class="<!--C3_CLASS-->" x="27.85" y="47" text-anchor="middle"><!--C3--></text>
    </g>
    <g id="B3" transform="translate(114.62 341.4)">
        <rect class="bs" width="55.69" height="55.69"/>
        <text class="<!--B3_CLASS-->" x="27.85" y="47" text-anchor="middle"><!--B3--></text>
    </g>
    <g id="A3" transform="translate(57.69 341.16)">
        <rect class="ws" width="55.69" height="55.69"/>
        <text class="<!--A3_CLASS-->" x="27.85" y="47" text-anchor="middle"><!--A3--></text>
    </g>
    <g id="A2" transform="translate(57.93 398.09)">
        <rect class="bs" width="55.69" height="55.69"/>
        <text class="<!--A2_CLASS-->" x="27.85" y="47" text-anchor="middle"><!--A2--></text>
    </g>
    <g id="B2" transform="translate(114.39 397.85)">
        <rect class="ws" width="55.69" height="55.69"/>
        <text class="<!--B2_CLASS-->" x="27.85" y="47" text-anchor="middle"><!--B2--></text>
    </g>
    <g id="C2" transform="translate(171.32 398.09)">
        <rect class="bs" width="55.69" height="55.69"/>
        <text class="<!--C2_CLASS-->" x="27.85" y="47" text-anchor="middle"><!--C2--></text>
    </g>
    <g id="D2" transform="translate(227.77 397.85)">
        <rect class="ws" width="55.69" height="55.69"/>
        <text class="<!--D2_CLASS-->" x="27.85" y="47" text-anchor="middle"><!--D2--></text>
    </g>
    <g id="E2" transform="translate(284.7 398.09)">
        <rect class="bs" width="55.69" height="55.69"/>
        <text class="<!--E2_CLASS-->" x="27.85" y="47" text-anchor="middle"><!--E2--></text>
    </g>
    <g id="F2" transform="translate(341.16 397.85)">
        <rect class="ws" width="55.69" height="55.69"/>
        <text class="<!--F2_CLASS-->" x="27.85" y="47" text-anchor="middle"><!--F2--></text>
    </g>
    <g id="G2" transform="translate(398.09 398.09)">
        <rect class="bs" width="55.69" height="55.69"/>
        <text class="<!--G2_CLASS-->" x="27.85" y="47" text-anchor="middle"><!--G2--></text>
    </g>
    <g id="H2" transform="translate(454.54 397.85)">
        <rect class="ws" width="55.69" height="55.69"/>
        <text class="<!--H2_CLASS-->" x="27.85" y="47" text-anchor="middle"><!--H2--></text>
    </g>
    <g id="H1" transform="translate(454.78 454.78)">
        <rect class="bs" width="55.69" height="55.69"/>
        <text class="<!--H1_CLASS-->" x="27.85" y="47" text-anchor="middle"><!--H1--></text>
    </g>
    <g id="G1" transform="translate(397.85 454.54)">
        <rect class="ws" width="55.69" height="55.69"/>
        <text class="<!--G1_CLASS-->" x="27.85" y="47" text-anchor="middle"><!--G1--></text>
    </g>
    <g id="F1" transform="translate(341.4 454.78)">
        <rect class="bs" width="55.69" height="55.69"/>
        <text class="<!--F1_CLASS-->" x="27.85" y="47" text-anchor="middle"><!--F1--></text>
    </g>
    <g id="E1" transform="translate(284.46 454.54)">
        <rect class="ws" width="55.69" height="55.69"/>
        <text class="<!--E1_CLASS-->" x="27.85" y="47" text-anchor="middle"><!--E1--></text>
    </g>
    <g id="D1" transform="translate(228.01 454.78)">
        <rect class="bs" width="55.69" height="55.69"/>
        <text class="<!--D1_CLASS-->" x="27.85" y="47" text-anchor="middle"><!--D1--></text>
    </g>
    <g id="C1" transform="translate(171.08 454.54)">
        <rect class="ws" width="55.69" height="55.69"/>
        <text class="<!--C1_CLASS-->" x="27.85" y="47" text-anchor="middle"><!--C1--></text>
    </g>
    <g id="B1" transform="translate(114.62 454.78)">
        <rect class="bs" width="55.69" height="55.69"/>
        <text class="<!--B1_CLASS-->" x="27.85" y="47" text-anchor="middle"><!--B1--></text>
    </g>
    <g id="A1" transform="translate(57.69 454.54)">
        <rect class="ws" width="55.69" height="55.69"/>
        <text class="<!--A1_CLASS-->" x="27.85" y="47" text-anchor="middle"><!--A1--></text>
    </g>
    <text class="sym" transform="translate(20.38 492.03)">1</text>
    <text class="sym" transform="translate(20.38 435.34)">2</text>
    <text class="sym" transform="translate(20.38 378.64)">3</text>
    <text class="sym" transform="translate(20.38 321.95)">4</text>
    <text class="sym" transform="translate(20.38 265.26)">5</text>
    <text class="sym" transform="translate(20.38 208.56)">6</text>
    <text class="sym" transform="translate(20.38 151.87)">7</text>
    <text class="sym" transform="translate(20.38 95.18)">8</text>
    <text class="sym" transform="translate(74.08 550.69)"><!--A--></text>
    <text class="sym" transform="translate(133.58 550.69)"><!--B--></text>
    <text class="sym" transform="translate(186.88 550.69)"><!--C--></text>
    <text class="sym" transform="translate(246.39 550.69)"><!--D--></text>
    <text class="sym" transform="translate(305.24 550.69)"><!--E--></text>
    <text class="sym" transform="translate(362.06 550.69)"><!--F--></text>
    <text class="sym" transform="translate(413.92 550.69)"><!--G--></text>
    <text class="sym" transform="translate(471.58 550.69)"><!--H--></text>
</svg>
